<svg width="18" height="18" viewBox="0 0 18 18" fill="none" xmlns="http://www.w3.org/2000/svg">
<path d="M15.4583 5.09169H13.8917C13.7333 2.52503 11.6033 0.486694 9.00001 0.486694C6.39667 0.486694 4.26667 2.52669 4.10834 5.09169H2.54167C1.50834 5.09169 0.666672 5.93086 0.666672 6.96669V15.4917C0.666672 16.525 1.50834 17.3667 2.54167 17.3667H15.4583C16.4917 17.3667 17.3333 16.525 17.3333 15.4917V6.96669C17.3333 5.93169 16.4917 5.09169 15.4583 5.09169ZM9.62501 12.0725V13.2359C9.62501 13.5809 9.34501 13.8609 9.00001 13.8609C8.65501 13.8609 8.37501 13.5809 8.37501 13.2359V12.0725C7.73834 11.8225 7.28584 11.2059 7.28584 10.4809C7.28584 9.53336 8.05251 8.76586 9.00001 8.76586C9.94667 8.76586 10.7142 9.53253 10.7142 10.4792C10.7142 11.2042 10.2617 11.8209 9.62501 12.0709V12.0725ZM5.37334 5.09169C5.53167 3.21669 7.08751 1.73669 9.00001 1.73669C10.9125 1.73669 12.4692 3.21753 12.6267 5.08919H5.37334V5.09169Z" fill="#D9D9D9"/>
</svg>
