<svg width="170" height="34" viewBox="0 0 170 34" fill="none" xmlns="http://www.w3.org/2000/svg">
<rect width="34" height="34" rx="17" fill="black"/>
<g filter="url(#filter0_d_666_752)">
<path d="M23.4583 8.66667H10.5417C9.50832 8.66667 8.66666 9.50834 8.66666 10.5417V23.4583C8.66666 24.4917 9.50832 25.3333 10.5417 25.3333H23.4583C24.4917 25.3333 25.3333 24.4917 25.3333 23.4583V10.5417C25.3333 9.50834 24.4917 8.66667 23.4583 8.66667ZM10.5417 9.91667H23.4583C23.8025 9.91667 24.0833 10.1975 24.0833 10.5417V18.605L20.8683 15.39C20.7517 15.2733 20.5933 15.2067 20.4267 15.2067H20.4242C20.2575 15.2067 20.0967 15.2733 19.9808 15.3933L16.3833 19.0467L14.8725 17.5417C14.7558 17.425 14.5975 17.3583 14.4308 17.3583C14.27 17.3333 14.1017 17.425 13.985 17.5475L9.91666 21.7017V10.5417C9.91666 10.1975 10.1975 9.91667 10.5417 9.91667ZM9.92166 23.4833L14.4367 18.8717L19.6717 24.0833H10.5417C10.2067 24.0833 9.93582 23.815 9.92166 23.4833ZM23.4583 24.0833H21.4417L17.2692 19.9275L20.4292 16.7192L24.0833 20.3725V23.4583C24.0833 23.8025 23.8025 24.0833 23.4583 24.0833Z" fill="#1D9BF0"/>
<path d="M14.39 15.2092C15.0997 15.2092 15.675 14.6339 15.675 13.9242C15.675 13.2145 15.0997 12.6392 14.39 12.6392C13.6803 12.6392 13.105 13.2145 13.105 13.9242C13.105 14.6339 13.6803 15.2092 14.39 15.2092Z" fill="#1D9BF0"/>
</g>
<rect x="34" width="34" height="34" rx="17" fill="black"/>
<path d="M56.8333 15.75V14.3333H53.1666V19.6667H54.5833V18H56.25V16.5833H54.5833V15.75H56.8333ZM50.75 14.3333H52.1666V19.6667H50.75V14.3333ZM47.75 15.6667C48.0833 15.6667 48.5 15.8333 48.75 16.0833L49.75 15.25C49.25 14.6667 48.5 14.3333 47.75 14.3333C46.25 14.3333 45.0833 15.5 45.0833 17C45.0833 18.5 46.25 19.6667 47.75 19.6667C48.5833 19.6667 49.25 19.3333 49.75 18.75V16.6667H47.4166V17.6667H48.4166V18.1667C48.25 18.25 48 18.3333 47.75 18.3333C47 18.3333 46.4166 17.75 46.4166 17C46.4166 16.3333 47 15.6667 47.75 15.6667Z" fill="#1D9BF0"/>
<path d="M58.0833 8.68333H43.9167C42.8833 8.68333 42.0417 9.5225 42.0417 10.5558V23.4783C42.0417 24.51 42.8833 25.35 43.9167 25.35H58.0833C59.1167 25.35 59.9583 24.51 59.9583 23.4783V10.5558C59.9583 9.5225 59.1167 8.68333 58.0833 8.68333ZM58.7083 23.4783C58.7083 23.82 58.4283 24.1 58.0833 24.1H43.9167C43.5717 24.1 43.2917 23.82 43.2917 23.4783V10.5558C43.2917 10.2125 43.5717 9.93333 43.9167 9.93333H58.0833C58.4283 9.93333 58.7083 10.2125 58.7083 10.5558V23.4783Z" fill="#1D9BF0"/>
<rect x="68" width="34" height="34" rx="17" fill="black"/>
<path d="M91.8517 14.6333H90.74C90.7525 14.5583 90.7633 14.4817 90.7633 14.4025V12.475C90.7633 11.6583 90.0992 10.9942 89.2817 10.9942H77.9167V9.79834C77.9167 9.45334 77.6367 9.17334 77.2917 9.17334C76.9467 9.17334 76.6667 9.45334 76.6667 9.79834V24.3583C76.6667 24.7042 76.9467 24.9833 77.2917 24.9833C77.6367 24.9833 77.9167 24.7042 77.9167 24.3583V23.1633H86.7133C87.53 23.1633 88.195 22.4992 88.195 21.6825V19.755C88.195 19.6758 88.1833 19.5992 88.1717 19.5233H91.8525C92.6692 19.5233 93.3342 18.8583 93.3342 18.0417V16.1167C93.3342 15.2975 92.67 14.6333 91.8525 14.6333H91.8517ZM89.2833 12.2442C89.41 12.2442 89.5142 12.3475 89.5142 12.475V14.4C89.5142 14.5283 89.41 14.6333 89.2825 14.6333H77.9167V12.2417H89.2833V12.2442ZM86.9442 19.7558V21.6825C86.9442 21.81 86.84 21.9133 86.7125 21.9133H77.9167V19.5233H86.7133C86.8408 19.5233 86.9442 19.6283 86.9442 19.7567V19.7558ZM92.0833 18.0417C92.0833 18.1692 91.9792 18.2725 91.8517 18.2725H77.9167V15.8833H91.8517C91.9792 15.8833 92.0833 15.9867 92.0833 16.1142V18.0417Z" fill="#1D9BF0"/>
<rect x="102" width="34" height="34" rx="17" fill="black"/>
<path d="M119 25.9583C114.06 25.9583 110.042 21.94 110.042 17C110.042 12.06 114.06 8.04167 119 8.04167C123.94 8.04167 127.958 12.06 127.958 17C127.958 21.94 123.94 25.9583 119 25.9583ZM119 9.29167C114.75 9.29167 111.292 12.75 111.292 17C111.292 21.25 114.75 24.7083 119 24.7083C123.25 24.7083 126.708 21.25 126.708 17C126.708 12.75 123.25 9.29167 119 9.29167Z" fill="#1D9BF0"/>
<path d="M119 21.2625C117.423 21.2625 115.972 20.4708 115.12 19.1425C114.933 18.8525 115.017 18.4675 115.308 18.28C115.598 18.0917 115.985 18.1767 116.172 18.4683C116.794 19.4367 117.852 20.0142 119.001 20.0142C120.15 20.0142 121.207 19.4367 121.831 18.4692C122.017 18.1775 122.404 18.0942 122.694 18.2817C122.986 18.4683 123.069 18.855 122.882 19.145C122.028 20.4733 120.577 21.2658 119.001 21.2658L119 21.2625Z" fill="#1D9BF0"/>
<path d="M121.282 16.1133C121.962 16.1133 122.513 15.5619 122.513 14.8817C122.513 14.2014 121.962 13.65 121.282 13.65C120.601 13.65 120.05 14.2014 120.05 14.8817C120.05 15.5619 120.601 16.1133 121.282 16.1133Z" fill="#1D9BF0"/>
<path d="M116.718 16.1133C117.399 16.1133 117.95 15.5619 117.95 14.8817C117.95 14.2014 117.399 13.65 116.718 13.65C116.038 13.65 115.487 14.2014 115.487 14.8817C115.487 15.5619 116.038 16.1133 116.718 16.1133Z" fill="#1D9BF0"/>
<rect x="136" width="34" height="34" rx="17" fill="black"/>
<g clip-path="url(#clip0_666_752)">
<path d="M111.417 22C111.333 21.9167 111.333 21.9167 111.333 21.8333C111.417 21.8333 111.417 21.9167 111.417 22ZM158 8.83334H156.917V8.58334C156.917 8.25001 156.667 7.91667 156.25 7.91667C155.917 7.91667 155.583 8.16667 155.583 8.58334V8.83334H149.417V8.58334C149.417 8.25001 149.167 7.91667 148.75 7.91667C148.417 7.91667 148.083 8.16667 148.083 8.58334V8.83334H147C145.833 8.83334 144.917 9.75001 144.917 10.9167V21.8333C144.917 23 145.833 23.9167 147 23.9167H149.417C149.75 23.9167 150.083 23.6667 150.083 23.25C150.083 22.9167 149.833 22.5833 149.417 22.5833H147C146.5 22.5833 146.167 22.1667 146.167 21.75V13.5833C146.167 13.3333 146.5 13 147 13H158C158.5 13 158.833 13.3333 158.833 13.5833V15.0833C158.833 15.4167 159.083 15.75 159.5 15.75C159.833 15.75 160.167 15.5 160.167 15.0833V10.9167C160.083 9.75001 159.167 8.83334 158 8.83334ZM158.833 11.9167C158.583 11.8333 158.25 11.75 158 11.75H147C146.667 11.75 146.417 11.8333 146.167 11.9167V10.9167C146.167 10.4167 146.583 10.0833 147 10.0833H148.083V10.5C148.083 10.8333 148.333 11.1667 148.75 11.1667C149.083 11.1667 149.417 10.9167 149.417 10.5V10.0833H155.667V10.5C155.667 10.8333 155.917 11.1667 156.333 11.1667C156.667 11.1667 157 10.9167 157 10.5V10.0833H158C158.5 10.0833 158.833 10.5 158.833 10.9167V11.9167Z" fill="#1D9BF0"/>
<path d="M155.917 15.6667C153.083 15.6667 150.75 18 150.75 20.8333C150.75 23.6667 153.083 26 155.917 26C158.75 26 161.083 23.6667 161.083 20.8333C161.083 18 158.75 15.6667 155.917 15.6667ZM155.917 24.8333C153.75 24.8333 152 23.0833 152 20.9167C152 18.75 153.75 17 155.917 17C158.083 17 159.833 18.75 159.833 20.9167C159.833 23 158.083 24.8333 155.917 24.8333Z" fill="#1D9BF0"/>
<path d="M158.75 22.5833C158.667 22.75 158.417 22.9167 158.25 22.9167C158.167 22.9167 158 22.9167 157.917 22.8333L155.333 21.1667V18.6667C155.333 18.3333 155.583 18 156 18C156.333 18 156.667 18.25 156.667 18.6667V20.5L158.667 21.75C158.833 21.9167 158.917 22.25 158.75 22.5833Z" fill="#1D9BF0"/>
</g>
<defs>
<filter id="filter0_d_666_752" x="3" y="7" width="28" height="28" filterUnits="userSpaceOnUse" color-interpolation-filters="sRGB">
<feFlood flood-opacity="0" result="BackgroundImageFix"/>
<feColorMatrix in="SourceAlpha" type="matrix" values="0 0 0 0 0 0 0 0 0 0 0 0 0 0 0 0 0 0 127 0" result="hardAlpha"/>
<feOffset dy="4"/>
<feGaussianBlur stdDeviation="2"/>
<feComposite in2="hardAlpha" operator="out"/>
<feColorMatrix type="matrix" values="0 0 0 0 0 0 0 0 0 0 0 0 0 0 0 0 0 0 0.25 0"/>
<feBlend mode="normal" in2="BackgroundImageFix" result="effect1_dropShadow_666_752"/>
<feBlend mode="normal" in="SourceGraphic" in2="effect1_dropShadow_666_752" result="shape"/>
</filter>
<clipPath id="clip0_666_752">
<rect width="20" height="20" fill="white" transform="translate(143 7)"/>
</clipPath>
</defs>
</svg>
